<svg width="22" height="21" viewBox="0 0 22 21" fill="none" xmlns="http://www.w3.org/2000/svg">
    <g clip-path="url(#clip0_4457_4373)">
        <path fill-rule="evenodd" clip-rule="evenodd"
            d="M7.6782 2.10788C8.04742 1.73867 8.54818 1.53125 9.07032 1.53125C9.32893 1.53114 9.58504 1.58197 9.824 1.68086C10.063 1.77975 10.2801 1.92475 10.463 2.10757C10.6459 2.2904 10.791 2.50747 10.89 2.74639C10.989 2.98531 11.0399 3.24139 11.0399 3.5V3.7275C10.5517 3.71875 10.0162 3.71875 9.42995 3.71875H8.71157C8.12357 3.71875 7.58895 3.71875 7.10157 3.7275V3.5C7.10157 2.97785 7.30899 2.4771 7.6782 2.10788ZM12.3516 3.5V3.787C12.4726 3.79726 12.5942 3.8098 12.7147 3.82462C13.5984 3.93312 14.3273 4.16325 14.9459 4.67687C15.5654 5.1905 15.9242 5.86425 16.1954 6.713C16.4562 7.53463 16.6548 8.59163 16.9042 9.92075L16.9217 10.017L16.9226 10.0219C17.1367 11.1632 17.3232 12.1572 17.4477 13.023C17.4025 13.0399 17.362 13.0663 17.326 13.102C17.258 13.1695 17.224 13.2536 17.224 13.3542V16.8763C17.2208 16.8828 17.2176 16.8893 17.2144 16.8958H15.5945C15.6656 16.8321 15.7308 16.7641 15.7912 16.6915C16.1674 16.2383 16.3346 15.6345 16.2899 14.5915C16.2427 13.5319 15.9846 12.1459 15.6206 10.206C15.3616 8.8235 15.1778 7.847 14.9433 7.11112C14.7141 6.39187 14.4603 5.97975 14.1068 5.68663C13.7533 5.3935 13.3018 5.21938 12.5528 5.12663C11.7863 5.03212 10.7914 5.03125 9.38532 5.03125H8.75532C7.3492 5.03125 6.35432 5.03212 5.58782 5.1275C4.8397 5.21938 4.38732 5.3935 4.03382 5.6875C3.6812 5.97975 3.42657 6.39187 3.19732 7.11112C2.9637 7.84612 2.77907 8.82437 2.52007 10.206C2.15607 12.1459 1.89795 13.531 1.85157 14.5924C1.80607 15.6336 1.97407 16.2374 2.34945 16.6915C2.7257 17.1439 3.28832 17.4195 4.32082 17.5665C5.37082 17.717 6.78132 17.7188 8.75532 17.7188H9.38532C11.2259 17.7188 12.5747 17.7172 13.6004 17.5959C13.6264 17.6014 13.6536 17.6042 13.6823 17.6042H16.7383C16.0696 18.3632 15.152 18.7032 14.0062 18.8668C12.8521 19.0312 11.3488 19.0312 9.44132 19.0312H8.70195C6.79357 19.0312 5.2912 19.0312 4.1362 18.8668C2.9532 18.6979 2.01432 18.3409 1.34057 17.5289C0.666821 16.7178 0.488321 15.729 0.540821 14.5346C0.592446 13.37 0.868946 11.8921 1.2207 10.017L1.23907 9.92075C1.48757 8.59163 1.68532 7.5355 1.94782 6.713C2.21732 5.86425 2.57607 5.1905 3.19557 4.67687C3.81507 4.16325 4.54307 3.934 5.42682 3.82462C5.54349 3.81004 5.66424 3.7975 5.78907 3.787V3.5C5.78907 2.62976 6.13477 1.79516 6.75013 1.17981C7.36548 0.564452 8.20008 0.21875 9.07032 0.21875C9.94056 0.21875 10.7752 0.564452 11.3905 1.17981C12.0059 1.79516 12.3516 2.62976 12.3516 3.5Z"
            fill="#0C070F"></path>
        <mask id="mask0_4457_4373" style="mask-type:luminance" maskUnits="userSpaceOnUse" x="0" y="0" width="18"
            height="20">
            <path fill-rule="evenodd" clip-rule="evenodd"
                d="M7.6782 2.10788C8.04742 1.73867 8.54818 1.53125 9.07032 1.53125C9.32893 1.53114 9.58504 1.58197 9.824 1.68086C10.063 1.77975 10.2801 1.92475 10.463 2.10757C10.6459 2.2904 10.791 2.50747 10.89 2.74639C10.989 2.98531 11.0399 3.24139 11.0399 3.5V3.7275C10.5517 3.71875 10.0162 3.71875 9.42995 3.71875H8.71157C8.12357 3.71875 7.58895 3.71875 7.10157 3.7275V3.5C7.10157 2.97785 7.30899 2.4771 7.6782 2.10788ZM12.3516 3.5V3.787C12.4726 3.79726 12.5942 3.8098 12.7147 3.82462C13.5984 3.93312 14.3273 4.16325 14.9459 4.67687C15.5654 5.1905 15.9242 5.86425 16.1954 6.713C16.4562 7.53463 16.6548 8.59163 16.9042 9.92075L16.9217 10.017L16.9226 10.0219C17.1367 11.1632 17.3232 12.1572 17.4477 13.023C17.4025 13.0399 17.362 13.0663 17.326 13.102C17.258 13.1695 17.224 13.2536 17.224 13.3542V16.8763C17.2208 16.8828 17.2176 16.8893 17.2144 16.8958H15.5945C15.6656 16.8321 15.7308 16.7641 15.7912 16.6915C16.1674 16.2383 16.3346 15.6345 16.2899 14.5915C16.2427 13.5319 15.9846 12.1459 15.6206 10.206C15.3616 8.8235 15.1778 7.847 14.9433 7.11112C14.7141 6.39187 14.4603 5.97975 14.1068 5.68663C13.7533 5.3935 13.3018 5.21938 12.5528 5.12663C11.7863 5.03212 10.7914 5.03125 9.38532 5.03125H8.75532C7.3492 5.03125 6.35432 5.03212 5.58782 5.1275C4.8397 5.21938 4.38732 5.3935 4.03382 5.6875C3.6812 5.97975 3.42657 6.39187 3.19732 7.11112C2.9637 7.84612 2.77907 8.82437 2.52007 10.206C2.15607 12.1459 1.89795 13.531 1.85157 14.5924C1.80607 15.6336 1.97407 16.2374 2.34945 16.6915C2.7257 17.1439 3.28832 17.4195 4.32082 17.5665C5.37082 17.717 6.78132 17.7188 8.75532 17.7188H9.38532C11.2259 17.7188 12.5747 17.7172 13.6004 17.5959C13.6264 17.6014 13.6536 17.6042 13.6823 17.6042H16.7383C16.0696 18.3632 15.152 18.7032 14.0062 18.8668C12.8521 19.0312 11.3488 19.0312 9.44132 19.0312H8.70195C6.79357 19.0312 5.2912 19.0312 4.1362 18.8668C2.9532 18.6979 2.01432 18.3409 1.34057 17.5289C0.666821 16.7178 0.488321 15.729 0.540821 14.5346C0.592446 13.37 0.868946 11.8921 1.2207 10.017L1.23907 9.92075C1.48757 8.59163 1.68532 7.5355 1.94782 6.713C2.21732 5.86425 2.57607 5.1905 3.19557 4.67687C3.81507 4.16325 4.54307 3.934 5.42682 3.82462C5.54349 3.81004 5.66424 3.7975 5.78907 3.787V3.5C5.78907 2.62976 6.13477 1.79516 6.75013 1.17981C7.36548 0.564452 8.20008 0.21875 9.07032 0.21875C9.94056 0.21875 10.7752 0.564452 11.3905 1.17981C12.0059 1.79516 12.3516 2.62976 12.3516 3.5Z"
                fill="black"></path>
        </mask>
        <g mask="url(#mask0_4457_4373)">
            <path
                d="M11.0399 3.7274L11.0382 3.82738L11.1399 3.82921V3.7274H11.0399ZM7.10159 3.7274H7.00159V3.82921L7.10339 3.82738L7.10159 3.7274ZM12.3516 3.7869H12.2516V3.8869H12.3516V3.7869ZM12.3516 3.7869L12.3609 3.6869H12.3524L12.3516 3.7869ZM17.4477 13.0229L17.4828 13.1165L17.5581 13.0882L17.5466 13.0086L17.4477 13.0229ZM17.224 16.8762L17.3139 16.9199L17.324 16.8992V16.8762H17.224ZM17.2144 16.8957V16.9957H17.2765L17.304 16.94L17.2144 16.8957ZM15.5945 16.8957L15.5278 16.8212L15.3329 16.9957H15.5945V16.8957ZM13.6004 17.5958L13.6212 17.498L13.605 17.4945L13.5886 17.4965L13.6004 17.5958ZM16.7383 17.6041L16.8133 17.6702L16.9597 17.5041H16.7383V17.6041ZM5.78909 3.7869L5.79747 3.88655L5.88909 3.87884V3.7869H5.78909ZM9.07034 1.43115C8.52167 1.43115 7.99548 1.64911 7.60751 2.03707L7.74894 2.17849C8.09939 1.82804 8.57472 1.63115 9.07034 1.63115V1.43115ZM9.86226 1.58836C9.61116 1.48445 9.34209 1.43103 9.07034 1.43115V1.63115C9.31581 1.63104 9.55896 1.6793 9.78578 1.77316L9.86226 1.58836ZM10.5337 2.03675C10.3415 1.84463 10.1133 1.69227 9.86226 1.58836L9.78578 1.77316C10.0126 1.86703 10.2187 2.00466 10.3923 2.1782L10.5337 2.03675ZM10.9824 2.70801C10.8784 2.45696 10.7259 2.22886 10.5337 2.03675L10.3923 2.1782C10.5659 2.35174 10.7037 2.55779 10.7976 2.78457L10.9824 2.70801ZM11.1399 3.4999C11.1399 3.22815 11.0864 2.95906 10.9824 2.70801L10.7976 2.78457C10.8916 3.01135 10.9399 3.25442 10.9399 3.4999H11.1399ZM11.1399 3.7274V3.4999H10.9399V3.7274H11.1399ZM9.42997 3.81865C10.0164 3.81865 10.551 3.81865 11.0382 3.82738L11.0417 3.62742C10.5524 3.61865 10.016 3.61865 9.42997 3.61865V3.81865ZM8.71159 3.81865H9.42997V3.61865H8.71159V3.81865ZM7.10339 3.82738C7.58969 3.81865 8.12336 3.81865 8.71159 3.81865V3.61865C8.12382 3.61865 7.58824 3.61865 7.0998 3.62742L7.10339 3.82738ZM7.00159 3.4999V3.7274H7.20159V3.4999H7.00159ZM7.60751 2.03707C7.21955 2.42504 7.00159 2.95123 7.00159 3.4999H7.20159C7.20159 3.00428 7.39848 2.52895 7.74894 2.17849L7.60751 2.03707ZM12.4516 3.7869V3.4999H12.2516V3.7869H12.4516ZM12.7269 3.72527C12.6052 3.71029 12.4831 3.69726 12.3609 3.6869L12.344 3.88654C12.4637 3.89669 12.5832 3.90911 12.7025 3.92378L12.7269 3.72527ZM15.0098 4.59984C14.371 4.06941 13.621 3.83505 12.7269 3.72527L12.7025 3.92378C13.5759 4.031 14.2837 4.25689 14.8821 4.75371L15.0098 4.59984ZM16.2908 6.68265C16.0164 5.82419 15.6496 5.13031 15.0098 4.59984L14.8821 4.75371C15.4813 5.25049 15.832 5.9043 16.1002 6.74334L16.2908 6.68265ZM17.0026 9.90276C16.7536 8.57592 16.5538 7.51142 16.2908 6.68265L16.1002 6.74334C16.3587 7.55782 16.5561 8.60768 16.8059 9.93909L17.0026 9.90276ZM17.0201 9.99901L17.0026 9.90276L16.8059 9.93909L16.8233 10.0348L17.0201 9.99901ZM17.0209 10.0033L17.0201 9.99901L16.8233 10.0348L16.8243 10.0402L17.0209 10.0033ZM17.5466 13.0086C17.4218 12.1403 17.2349 11.144 17.0209 10.0033L16.8243 10.0402C17.0385 11.1821 17.2246 12.1739 17.3487 13.0371L17.5466 13.0086ZM17.3964 13.1729C17.4229 13.1465 17.4516 13.1282 17.4828 13.1165L17.4125 12.9292C17.3534 12.9514 17.301 12.9858 17.2555 13.0309L17.3964 13.1729ZM17.324 13.3541C17.324 13.2787 17.3484 13.2206 17.3964 13.1729L17.2555 13.0309C17.1676 13.1183 17.124 13.2283 17.124 13.3541H17.324ZM17.324 16.8762V13.3541H17.124V16.8762H17.324ZM17.304 16.94C17.3073 16.9333 17.3106 16.9266 17.3139 16.9199L17.134 16.8325C17.1309 16.8388 17.1279 16.8451 17.1247 16.8514L17.304 16.94ZM15.5945 16.9957H17.2144V16.7957H15.5945V16.9957ZM15.6612 16.9702C15.7361 16.9032 15.8047 16.8316 15.8681 16.7553L15.7143 16.6275C15.6569 16.6964 15.5951 16.7609 15.5278 16.8212L15.6612 16.9702ZM15.8681 16.7553C16.267 16.2748 16.435 15.6417 16.3899 14.5871L16.19 14.5957C16.2342 15.6271 16.0679 16.2015 15.7143 16.6275L15.8681 16.7553ZM16.3899 14.5871C16.3423 13.5188 16.0823 12.1243 15.7189 10.1875L15.5223 10.2243C15.8869 12.1672 16.1432 13.5448 16.19 14.5957L16.3899 14.5871ZM15.7189 10.1875C15.4603 8.80756 15.2754 7.82382 15.0386 7.08066L14.848 7.14139C15.0802 7.86998 15.2628 8.83924 15.5223 10.2243L15.7189 10.1875ZM15.0386 7.08066C14.8062 6.35159 14.5444 5.9195 14.1707 5.60955L14.043 5.7635C14.3762 6.0398 14.6219 6.43196 14.848 7.14139L15.0386 7.08066ZM14.1707 5.60955C13.797 5.29968 13.3245 5.12132 12.5651 5.02728L12.5405 5.22577C13.2792 5.31723 13.7097 5.48712 14.043 5.7635L14.1707 5.60955ZM12.5651 5.02728C11.791 4.93185 10.7888 4.93115 9.38534 4.93115V5.13115C10.794 5.13115 11.7815 5.1322 12.5405 5.22577L12.5651 5.02728ZM9.38534 4.93115H8.75534V5.13115H9.38534V4.93115ZM8.75534 4.93115C7.35184 4.93115 6.34961 4.93184 5.57549 5.02817L5.60003 5.22665C6.35891 5.13223 7.34659 5.13115 8.75534 5.13115V4.93115ZM5.57549 5.02817C4.81698 5.12132 4.34366 5.29966 3.9699 5.61052L4.09765 5.76439C4.43089 5.48725 4.86229 5.31725 5.60003 5.22665L5.57549 5.02817ZM3.9699 5.61052C3.59701 5.91956 3.33447 6.35151 3.10206 7.08066L3.29262 7.14139C3.51871 6.43204 3.7653 6.03985 4.09765 5.76439L3.9699 5.61052ZM3.10206 7.08066C2.86614 7.82289 2.68033 8.80837 2.4218 10.1875L2.61838 10.2243C2.87785 8.84018 3.0613 7.86916 3.29262 7.14139L3.10206 7.08066ZM2.4218 10.1875C2.05837 12.1243 1.79845 13.5177 1.75169 14.5879L1.9515 14.5966C1.99749 13.5441 2.2538 12.1673 2.61838 10.2243L2.4218 10.1875ZM1.75169 14.5879C1.70567 15.641 1.87458 16.2738 2.27239 16.7551L2.42654 16.6277C2.0736 16.2007 1.90651 15.6261 1.9515 14.5966L1.75169 14.5879ZM2.27239 16.7551C2.67126 17.2347 3.26268 17.5168 4.30675 17.6654L4.33503 17.4674C3.31409 17.322 2.78017 17.0528 2.42654 16.6277L2.27239 16.7551ZM4.30675 17.6654C5.36552 17.8171 6.78447 17.8187 8.75534 17.8187V17.6186C6.77821 17.6186 5.37626 17.6167 4.33503 17.4674L4.30675 17.6654ZM8.75534 17.8187H9.38534V17.6186H8.75534V17.8187ZM9.38534 17.8187C11.2234 17.8187 12.5792 17.8173 13.6121 17.6951L13.5886 17.4965C12.5702 17.617 11.2284 17.6186 9.38534 17.6186V17.8187ZM13.6823 17.5041C13.6601 17.5041 13.6398 17.5019 13.6212 17.498L13.5796 17.6936C13.6129 17.7007 13.6472 17.7041 13.6823 17.7041V17.5041ZM16.7383 17.5041H13.6823V17.7041H16.7383V17.5041ZM14.0203 18.9656C15.177 18.8005 16.1221 18.4547 16.8133 17.6702L16.6633 17.538C16.0171 18.2714 15.127 18.6056 13.9921 18.7677L14.0203 18.9656ZM9.44134 19.1312C11.3459 19.1312 12.8575 19.1314 14.0203 18.9656L13.9921 18.7677C12.8466 18.9309 11.3517 18.9311 9.44134 18.9311V19.1312ZM8.70197 19.1312H9.44134V18.9311H8.70197V19.1312ZM4.12208 18.9656C5.28574 19.1313 6.7965 19.1312 8.70197 19.1312V18.9311C6.79068 18.9311 5.29665 18.9309 4.15032 18.7676L4.12208 18.9656ZM1.26363 17.5926C1.96005 18.432 2.92766 18.7951 4.12208 18.9656L4.15032 18.7676C2.97874 18.6003 2.06863 18.2496 1.41755 17.4649L1.26363 17.5926ZM0.44094 14.5301C0.387931 15.7361 0.567187 16.7541 1.26363 17.5926L1.41755 17.4649C0.766487 16.6811 0.588755 15.7217 0.640746 14.5389L0.44094 14.5301ZM1.12249 9.99815C0.771268 11.8705 0.492951 13.3568 0.44094 14.5301L0.640746 14.5389C0.691985 13.3829 0.966726 11.9133 1.319 10.0353L1.12249 9.99815ZM1.14087 9.9019L1.12249 9.99815L1.319 10.0353L1.33732 9.9394L1.14087 9.9019ZM1.85258 6.6825C1.58776 7.51226 1.38894 8.5751 1.14087 9.9019L1.33732 9.9394C1.58625 8.60795 1.78293 7.55854 2.04311 6.7433L1.85258 6.6825ZM3.13177 4.59979C2.49193 5.13028 2.12521 5.82389 1.85258 6.6825L2.04311 6.7433C2.30948 5.90441 2.66025 5.25052 3.25942 4.75376L3.13177 4.59979ZM5.41456 3.72528C4.52052 3.83593 3.77149 4.0694 3.13177 4.59979L3.25942 4.75376C3.85869 4.2569 4.56566 4.03187 5.43912 3.92377L5.41456 3.72528ZM5.78071 3.68725C5.65462 3.69786 5.53265 3.71052 5.41456 3.72528L5.43912 3.92377C5.55437 3.90937 5.6739 3.89694 5.79747 3.88655L5.78071 3.68725ZM5.68909 3.4999V3.7869H5.88909V3.4999H5.68909ZM6.67944 1.109C6.04533 1.7431 5.68909 2.60314 5.68909 3.4999H5.88909C5.88909 2.65618 6.22426 1.84702 6.82086 1.25042L6.67944 1.109ZM9.07034 0.118652C8.17358 0.118652 7.31354 0.47489 6.67944 1.109L6.82086 1.25042C7.41746 0.653818 8.22662 0.318652 9.07034 0.318652V0.118652ZM11.4612 1.109C10.8271 0.47489 9.9671 0.118652 9.07034 0.118652V0.318652C9.91406 0.318652 10.7232 0.653818 11.3198 1.25042L11.4612 1.109ZM12.4516 3.4999C12.4516 2.60314 12.0953 1.7431 11.4612 1.109L11.3198 1.25042C11.9164 1.84702 12.2516 2.65618 12.2516 3.4999H12.4516Z"
                fill="white"></path>
        </g>
        <path
            d="M21.1084 15.0938C21.1084 11.9526 18.562 9.40625 15.4209 9.40625C12.2798 9.40625 9.7334 11.9526 9.7334 15.0938C9.7334 18.2349 12.2798 20.7812 15.4209 20.7812C18.562 20.7812 21.1084 18.2349 21.1084 15.0938Z"
            fill="#F5F5F5"></path>
        <path
            d="M12.012 15.5036H15.011V18.5025C15.011 18.6149 15.0502 18.714 15.1284 18.7934C15.2074 18.8734 15.3072 18.9129 15.4208 18.9124C15.5336 18.9119 15.6329 18.8727 15.712 18.7941C15.7914 18.7152 15.8308 18.6157 15.8308 18.5025V15.5036H18.8298C18.9422 15.5036 19.0413 15.4644 19.1206 15.3861C19.2007 15.3072 19.2402 15.2074 19.2397 15.0938C19.2391 14.981 19.1999 14.8817 19.1214 14.8025C19.0425 14.7231 18.9429 14.6838 18.8298 14.6838H15.8308V11.6848C15.8308 11.5724 15.7916 11.4733 15.7134 11.3939C15.6344 11.3139 15.5346 11.2744 15.4211 11.2749C15.3082 11.2754 15.2089 11.3146 15.1298 11.3932C15.0504 11.4721 15.011 11.5716 15.011 11.6848V14.6838H12.012C11.8996 14.6838 11.8005 14.7229 11.7212 14.8012C11.6411 14.8801 11.6016 14.98 11.6022 15.0935C11.6027 15.2063 11.6419 15.3056 11.7204 15.3848C11.7993 15.4642 11.8989 15.5036 12.012 15.5036Z"
            fill="#0C070F" stroke="#0C070F" stroke-width="0.2"></path>
    </g>
    <defs>
        <clipPath id="clip0_4457_4373">
            <rect width="22" height="21" fill="white"></rect>
        </clipPath>
    </defs>
</svg>