<svg width="22" height="21" viewBox="0 0 22 21" fill="none" xmlns="http://www.w3.org/2000/svg">
<g clip-path="url(#clip0_5668_4422)">
<mask id="mask0_5668_4422" style="mask-type:luminance" maskUnits="userSpaceOnUse" x="0" y="0" width="22" height="21">
<path d="M22 0H0V21H22V0Z" fill="white"/>
</mask>
<g mask="url(#mask0_5668_4422)">
<path fill-rule="evenodd" clip-rule="evenodd" d="M7.6782 2.10788C8.04742 1.73867 8.54818 1.53125 9.07032 1.53125C9.32893 1.53114 9.58504 1.58197 9.824 1.68086C10.063 1.77975 10.2801 1.92475 10.463 2.10757C10.6459 2.2904 10.791 2.50747 10.89 2.74639C10.989 2.98531 11.0399 3.24139 11.0399 3.5V3.7275C10.5517 3.71875 10.0162 3.71875 9.42995 3.71875H8.71157C8.12357 3.71875 7.58895 3.71875 7.10157 3.7275V3.5C7.10157 2.97785 7.30899 2.4771 7.6782 2.10788ZM12.3516 3.5V3.787C12.4726 3.79726 12.5942 3.8098 12.7147 3.82462C13.5984 3.93312 14.3273 4.16325 14.9459 4.67687C15.5654 5.1905 15.9242 5.86425 16.1954 6.713C16.4562 7.53463 16.6548 8.59163 16.9042 9.92075L16.9217 10.017L16.9226 10.0219C17.1367 11.1632 17.3232 12.1572 17.4477 13.023C17.4025 13.0399 17.362 13.0663 17.326 13.102C17.258 13.1695 17.224 13.2536 17.224 13.3542V16.8763C17.2208 16.8828 17.2176 16.8893 17.2144 16.8958H15.5945C15.6656 16.8321 15.7308 16.7641 15.7912 16.6915C16.1674 16.2383 16.3346 15.6345 16.2899 14.5915C16.2427 13.5319 15.9846 12.1459 15.6206 10.206C15.3616 8.8235 15.1778 7.847 14.9433 7.11112C14.7141 6.39187 14.4603 5.97975 14.1068 5.68663C13.7533 5.3935 13.3018 5.21938 12.5528 5.12663C11.7863 5.03212 10.7914 5.03125 9.38532 5.03125H8.75532C7.3492 5.03125 6.35432 5.03212 5.58782 5.1275C4.8397 5.21938 4.38732 5.3935 4.03382 5.6875C3.6812 5.97975 3.42657 6.39187 3.19732 7.11112C2.9637 7.84612 2.77907 8.82437 2.52007 10.206C2.15607 12.1459 1.89795 13.531 1.85157 14.5924C1.80607 15.6336 1.97407 16.2374 2.34945 16.6915C2.7257 17.1439 3.28832 17.4195 4.32082 17.5665C5.37082 17.717 6.78132 17.7188 8.75532 17.7188H9.38532C11.2259 17.7188 12.5747 17.7172 13.6004 17.5959C13.6264 17.6014 13.6536 17.6042 13.6823 17.6042H16.7383C16.0696 18.3632 15.152 18.7032 14.0062 18.8668C12.8521 19.0312 11.3488 19.0312 9.44132 19.0312H8.70195C6.79357 19.0312 5.2912 19.0312 4.1362 18.8668C2.9532 18.6979 2.01432 18.3409 1.34057 17.5289C0.666821 16.7178 0.488321 15.729 0.540821 14.5346C0.592446 13.37 0.868946 11.8921 1.2207 10.017L1.23907 9.92075C1.48757 8.59163 1.68532 7.5355 1.94782 6.713C2.21732 5.86425 2.57607 5.1905 3.19557 4.67687C3.81507 4.16325 4.54307 3.934 5.42682 3.82462C5.54349 3.81004 5.66424 3.7975 5.78907 3.787V3.5C5.78907 2.62976 6.13477 1.79516 6.75013 1.17981C7.36548 0.564452 8.20008 0.21875 9.07032 0.21875C9.94056 0.21875 10.7752 0.564452 11.3905 1.17981C12.0059 1.79516 12.3516 2.62976 12.3516 3.5Z" fill="white"/>
<mask id="mask1_5668_4422" style="mask-type:luminance" maskUnits="userSpaceOnUse" x="0" y="0" width="18" height="20">
<path fill-rule="evenodd" clip-rule="evenodd" d="M7.6782 2.10788C8.04742 1.73867 8.54818 1.53125 9.07032 1.53125C9.32893 1.53114 9.58504 1.58197 9.824 1.68086C10.063 1.77975 10.2801 1.92475 10.463 2.10757C10.6459 2.2904 10.791 2.50747 10.89 2.74639C10.989 2.98531 11.0399 3.24139 11.0399 3.5V3.7275C10.5517 3.71875 10.0162 3.71875 9.42995 3.71875H8.71157C8.12357 3.71875 7.58895 3.71875 7.10157 3.7275V3.5C7.10157 2.97785 7.30899 2.4771 7.6782 2.10788ZM12.3516 3.5V3.787C12.4726 3.79726 12.5942 3.8098 12.7147 3.82462C13.5984 3.93312 14.3273 4.16325 14.9459 4.67687C15.5654 5.1905 15.9242 5.86425 16.1954 6.713C16.4562 7.53463 16.6548 8.59163 16.9042 9.92075L16.9217 10.017L16.9226 10.0219C17.1367 11.1632 17.3232 12.1572 17.4477 13.023C17.4025 13.0399 17.362 13.0663 17.326 13.102C17.258 13.1695 17.224 13.2536 17.224 13.3542V16.8763C17.2208 16.8828 17.2176 16.8893 17.2144 16.8958H15.5945C15.6656 16.8321 15.7308 16.7641 15.7912 16.6915C16.1674 16.2383 16.3346 15.6345 16.2899 14.5915C16.2427 13.5319 15.9846 12.1459 15.6206 10.206C15.3616 8.8235 15.1778 7.847 14.9433 7.11112C14.7141 6.39187 14.4603 5.97975 14.1068 5.68663C13.7533 5.3935 13.3018 5.21938 12.5528 5.12663C11.7863 5.03212 10.7914 5.03125 9.38532 5.03125H8.75532C7.3492 5.03125 6.35432 5.03212 5.58782 5.1275C4.8397 5.21938 4.38732 5.3935 4.03382 5.6875C3.6812 5.97975 3.42657 6.39187 3.19732 7.11112C2.9637 7.84612 2.77907 8.82437 2.52007 10.206C2.15607 12.1459 1.89795 13.531 1.85157 14.5924C1.80607 15.6336 1.97407 16.2374 2.34945 16.6915C2.7257 17.1439 3.28832 17.4195 4.32082 17.5665C5.37082 17.717 6.78132 17.7188 8.75532 17.7188H9.38532C11.2259 17.7188 12.5747 17.7172 13.6004 17.5959C13.6264 17.6014 13.6536 17.6042 13.6823 17.6042H16.7383C16.0696 18.3632 15.152 18.7032 14.0062 18.8668C12.8521 19.0312 11.3488 19.0312 9.44132 19.0312H8.70195C6.79357 19.0312 5.2912 19.0312 4.1362 18.8668C2.9532 18.6979 2.01432 18.3409 1.34057 17.5289C0.666821 16.7178 0.488321 15.729 0.540821 14.5346C0.592446 13.37 0.868946 11.8921 1.2207 10.017L1.23907 9.92075C1.48757 8.59163 1.68532 7.5355 1.94782 6.713C2.21732 5.86425 2.57607 5.1905 3.19557 4.67687C3.81507 4.16325 4.54307 3.934 5.42682 3.82462C5.54349 3.81004 5.66424 3.7975 5.78907 3.787V3.5C5.78907 2.62976 6.13477 1.79516 6.75013 1.17981C7.36548 0.564452 8.20008 0.21875 9.07032 0.21875C9.94056 0.21875 10.7752 0.564452 11.3905 1.17981C12.0059 1.79516 12.3516 2.62976 12.3516 3.5Z" fill="white"/>
</mask>
<g mask="url(#mask1_5668_4422)">
<path d="M11.0403 3.72691L11.0386 3.82689L11.1403 3.82872V3.72691H11.0403ZM7.10196 3.72691H7.00196V3.82872L7.10376 3.82689L7.10196 3.72691ZM12.352 3.78641H12.252V3.88641H12.352V3.78641ZM12.352 3.78641L12.3613 3.68641H12.3528L12.352 3.78641ZM17.4481 13.0224L17.4832 13.116L17.5585 13.0877L17.547 13.0081L17.4481 13.0224ZM17.2244 16.8757L17.3143 16.9194L17.3244 16.8987V16.8757H17.2244ZM17.2148 16.8952V16.9952H17.2769L17.3044 16.9395L17.2148 16.8952ZM15.5949 16.8952L15.5282 16.8207L15.3333 16.9952H15.5949V16.8952ZM13.6008 17.5953L13.6216 17.4975L13.6054 17.494L13.589 17.496L13.6008 17.5953ZM16.7387 17.6036L16.8137 17.6697L16.9601 17.5036H16.7387V17.6036ZM5.78946 3.78641L5.79784 3.88606L5.88946 3.87835V3.78641H5.78946ZM9.07071 1.43066C8.52204 1.43066 7.99585 1.64862 7.60788 2.03658L7.74931 2.178C8.09976 1.82755 8.57509 1.63066 9.07071 1.63066V1.43066ZM9.86263 1.58787C9.61153 1.48396 9.34246 1.43054 9.07071 1.43066V1.63066C9.31618 1.63055 9.55933 1.67881 9.78615 1.77267L9.86263 1.58787ZM10.5341 2.03626C10.3419 1.84414 10.1137 1.69178 9.86263 1.58787L9.78615 1.77267C10.013 1.86654 10.2191 2.00417 10.3927 2.17771L10.5341 2.03626ZM10.9828 2.70752C10.8788 2.45647 10.7263 2.22837 10.5341 2.03626L10.3927 2.17771C10.5663 2.35125 10.7041 2.5573 10.798 2.78408L10.9828 2.70752ZM11.1403 3.49941C11.1403 3.22766 11.0868 2.95857 10.9828 2.70752L10.798 2.78408C10.892 3.01086 10.9403 3.25393 10.9403 3.49941H11.1403ZM11.1403 3.72691V3.49941H10.9403V3.72691H11.1403ZM9.43034 3.81816C10.0168 3.81816 10.5514 3.81816 11.0386 3.82689L11.0421 3.62693C10.5528 3.61816 10.0164 3.61816 9.43034 3.61816V3.81816ZM8.71196 3.81816H9.43034V3.61816H8.71196V3.81816ZM7.10376 3.82689C7.59006 3.81816 8.12373 3.81816 8.71196 3.81816V3.61816C8.12419 3.61816 7.58861 3.61816 7.10017 3.62693L7.10376 3.82689ZM7.00196 3.49941V3.72691H7.20196V3.49941H7.00196ZM7.60788 2.03658C7.21992 2.42455 7.00196 2.95074 7.00196 3.49941H7.20196C7.20196 3.00379 7.39885 2.52846 7.74931 2.178L7.60788 2.03658ZM12.452 3.78641V3.49941H12.252V3.78641H12.452ZM12.7273 3.72478C12.6056 3.7098 12.4835 3.69677 12.3613 3.68641L12.3444 3.88605C12.4641 3.8962 12.5836 3.90862 12.7029 3.92329L12.7273 3.72478ZM15.0102 4.59935C14.3714 4.06892 13.6214 3.83456 12.7273 3.72478L12.7029 3.92329C13.5763 4.03051 14.2841 4.2564 14.8825 4.75322L15.0102 4.59935ZM16.2912 6.68216C16.0168 5.8237 15.65 5.12982 15.0102 4.59935L14.8825 4.75322C15.4817 5.25 15.8324 5.90381 16.1006 6.74285L16.2912 6.68216ZM17.003 9.90227C16.754 8.57543 16.5542 7.51093 16.2912 6.68216L16.1006 6.74285C16.3591 7.55733 16.5565 8.60719 16.8063 9.9386L17.003 9.90227ZM17.0205 9.99852L17.003 9.90227L16.8063 9.9386L16.8237 10.0343L17.0205 9.99852ZM17.0213 10.0028L17.0205 9.99852L16.8237 10.0343L16.8247 10.0397L17.0213 10.0028ZM17.547 13.0081C17.4222 12.1398 17.2353 11.1435 17.0213 10.0028L16.8247 10.0397C17.0389 11.1816 17.225 12.1734 17.3491 13.0366L17.547 13.0081ZM17.3968 13.1724C17.4233 13.146 17.452 13.1277 17.4832 13.116L17.4129 12.9287C17.3538 12.9509 17.3014 12.9853 17.2559 13.0304L17.3968 13.1724ZM17.3244 13.3536C17.3244 13.2782 17.3488 13.2201 17.3968 13.1724L17.2559 13.0304C17.168 13.1178 17.1244 13.2278 17.1244 13.3536H17.3244ZM17.3244 16.8757V13.3536H17.1244V16.8757H17.3244ZM17.3044 16.9395C17.3077 16.9328 17.311 16.9261 17.3143 16.9194L17.1344 16.832C17.1313 16.8383 17.1283 16.8446 17.1251 16.8509L17.3044 16.9395ZM15.5949 16.9952H17.2148V16.7952H15.5949V16.9952ZM15.6616 16.9697C15.7365 16.9027 15.8051 16.8311 15.8685 16.7548L15.7147 16.627C15.6573 16.6959 15.5955 16.7604 15.5282 16.8207L15.6616 16.9697ZM15.8685 16.7548C16.2674 16.2743 16.4354 15.6412 16.3903 14.5866L16.1904 14.5952C16.2346 15.6266 16.0683 16.201 15.7147 16.627L15.8685 16.7548ZM16.3903 14.5866C16.3427 13.5183 16.0827 12.1238 15.7193 10.187L15.5227 10.2238C15.8873 12.1667 16.1436 13.5443 16.1904 14.5952L16.3903 14.5866ZM15.7193 10.187C15.4607 8.80707 15.2758 7.82333 15.039 7.08017L14.8484 7.1409C15.0806 7.86949 15.2632 8.83875 15.5227 10.2238L15.7193 10.187ZM15.039 7.08017C14.8066 6.3511 14.5448 5.91901 14.1711 5.60906L14.0434 5.76301C14.3766 6.03931 14.6223 6.43147 14.8484 7.1409L15.039 7.08017ZM14.1711 5.60906C13.7974 5.29919 13.3249 5.12083 12.5655 5.02679L12.5409 5.22528C13.2796 5.31674 13.7101 5.48663 14.0434 5.76301L14.1711 5.60906ZM12.5655 5.02679C11.7914 4.93136 10.7892 4.93066 9.38571 4.93066V5.13066C10.7944 5.13066 11.7819 5.13171 12.5409 5.22528L12.5655 5.02679ZM9.38571 4.93066H8.75571V5.13066H9.38571V4.93066ZM8.75571 4.93066C7.35221 4.93066 6.34998 4.93135 5.57586 5.02768L5.6004 5.22616C6.35928 5.13174 7.34696 5.13066 8.75571 5.13066V4.93066ZM5.57586 5.02768C4.81735 5.12083 4.34403 5.29917 3.97027 5.61003L4.09802 5.7639C4.43126 5.48676 4.86266 5.31676 5.6004 5.22616L5.57586 5.02768ZM3.97027 5.61003C3.59738 5.91907 3.33484 6.35102 3.10243 7.08017L3.29299 7.1409C3.51908 6.43155 3.76567 6.03936 4.09802 5.7639L3.97027 5.61003ZM3.10243 7.08017C2.86651 7.8224 2.6807 8.80788 2.42217 10.187L2.61875 10.2238C2.87822 8.83969 3.06167 7.86867 3.29299 7.1409L3.10243 7.08017ZM2.42217 10.187C2.05874 12.1238 1.79882 13.5172 1.75206 14.5874L1.95187 14.5961C1.99786 13.5436 2.25417 12.1668 2.61875 10.2238L2.42217 10.187ZM1.75206 14.5874C1.70604 15.6405 1.87495 16.2733 2.27276 16.7546L2.42691 16.6272C2.07397 16.2002 1.90688 15.6256 1.95187 14.5961L1.75206 14.5874ZM2.27276 16.7546C2.67163 17.2342 3.26305 17.5163 4.30712 17.6649L4.3354 17.4669C3.31446 17.3215 2.78054 17.0523 2.42691 16.6272L2.27276 16.7546ZM4.30712 17.6649C5.36589 17.8166 6.78484 17.8182 8.75571 17.8182V17.6181C6.77858 17.6181 5.37663 17.6162 4.3354 17.4669L4.30712 17.6649ZM8.75571 17.8182H9.38571V17.6181H8.75571V17.8182ZM9.38571 17.8182C11.2238 17.8182 12.5796 17.8168 13.6125 17.6946L13.589 17.496C12.5706 17.6165 11.2288 17.6181 9.38571 17.6181V17.8182ZM13.6827 17.5036C13.6605 17.5036 13.6402 17.5014 13.6216 17.4975L13.58 17.6931C13.6133 17.7002 13.6476 17.7036 13.6827 17.7036V17.5036ZM16.7387 17.5036H13.6827V17.7036H16.7387V17.5036ZM14.0207 18.9651C15.1774 18.8 16.1225 18.4542 16.8137 17.6697L16.6637 17.5375C16.0175 18.2709 15.1274 18.6051 13.9925 18.7672L14.0207 18.9651ZM9.44171 19.1307C11.3463 19.1307 12.8579 19.1309 14.0207 18.9651L13.9925 18.7672C12.847 18.9304 11.3521 18.9306 9.44171 18.9306V19.1307ZM8.70234 19.1307H9.44171V18.9306H8.70234V19.1307ZM4.12245 18.9651C5.28611 19.1308 6.79687 19.1307 8.70234 19.1307V18.9306C6.79105 18.9306 5.29702 18.9304 4.15069 18.7671L4.12245 18.9651ZM1.264 17.5921C1.96042 18.4315 2.92803 18.7946 4.12245 18.9651L4.15069 18.7671C2.97911 18.5998 2.069 18.2491 1.41792 17.4644L1.264 17.5921ZM0.441306 14.5296C0.388297 15.7356 0.567553 16.7536 1.264 17.5921L1.41792 17.4644C0.766853 16.6806 0.589121 15.7212 0.641112 14.5384L0.441306 14.5296ZM1.12286 9.99766C0.771634 11.87 0.493317 13.3563 0.441306 14.5296L0.641112 14.5384C0.692351 13.3824 0.967092 11.9128 1.31937 10.0348L1.12286 9.99766ZM1.14124 9.90141L1.12286 9.99766L1.31937 10.0348L1.33769 9.93891L1.14124 9.90141ZM1.85295 6.68201C1.58813 7.51177 1.38931 8.57461 1.14124 9.90141L1.33769 9.93891C1.58662 8.60746 1.7833 7.55805 2.04348 6.74281L1.85295 6.68201ZM3.13214 4.5993C2.4923 5.12979 2.12558 5.8234 1.85295 6.68201L2.04348 6.74281C2.30985 5.90392 2.66062 5.25003 3.25979 4.75327L3.13214 4.5993ZM5.41493 3.72479C4.52089 3.83544 3.77186 4.06891 3.13214 4.5993L3.25979 4.75327C3.85906 4.25641 4.56603 4.03138 5.43949 3.92328L5.41493 3.72479ZM5.78108 3.68676C5.65499 3.69737 5.53302 3.71003 5.41493 3.72479L5.43949 3.92328C5.55474 3.90888 5.67427 3.89645 5.79784 3.88606L5.78108 3.68676ZM5.68946 3.49941V3.78641H5.88946V3.49941H5.68946ZM6.67981 1.10851C6.0457 1.74261 5.68946 2.60265 5.68946 3.49941H5.88946C5.88946 2.65569 6.22463 1.84653 6.82123 1.24993L6.67981 1.10851ZM9.07071 0.118164C8.17395 0.118164 7.31391 0.474402 6.67981 1.10851L6.82123 1.24993C7.41783 0.65333 8.22699 0.318164 9.07071 0.318164V0.118164ZM11.4616 1.10851C10.8275 0.474402 9.96747 0.118164 9.07071 0.118164V0.318164C9.91443 0.318164 10.7236 0.65333 11.3202 1.24993L11.4616 1.10851ZM12.452 3.49941C12.452 2.60265 12.0957 1.74261 11.4616 1.10851L11.3202 1.24993C11.9168 1.84653 12.252 2.65569 12.252 3.49941H12.452Z" fill="white"/>
</g>
<path d="M21.1084 15.0938C21.1084 11.9526 18.562 9.40625 15.4209 9.40625C12.2798 9.40625 9.7334 11.9526 9.7334 15.0938C9.7334 18.2349 12.2798 20.7812 15.4209 20.7812C18.562 20.7812 21.1084 18.2349 21.1084 15.0938Z" fill="black"/>
<path d="M12.0123 15.5031H15.0113V18.502C15.0113 18.6144 15.0505 18.7135 15.1287 18.7929C15.2077 18.8729 15.3075 18.9124 15.4211 18.9119C15.5339 18.9114 15.6332 18.8722 15.7123 18.7936C15.7917 18.7147 15.8311 18.6152 15.8311 18.502V15.5031H18.8301C18.9425 15.5031 19.0416 15.4639 19.1209 15.3856C19.201 15.3067 19.2405 15.2069 19.24 15.0933C19.2394 14.9805 19.2002 14.8812 19.1217 14.802C19.0428 14.7226 18.9432 14.6833 18.8301 14.6833H15.8311V11.6843C15.8311 11.5719 15.7919 11.4728 15.7137 11.3934C15.6347 11.3134 15.5349 11.2739 15.4214 11.2744C15.3085 11.2749 15.2092 11.3141 15.1301 11.3927C15.0507 11.4716 15.0113 11.5711 15.0113 11.6843V14.6833H12.0123C11.8999 14.6833 11.8008 14.7224 11.7215 14.8007C11.6414 14.8796 11.6019 14.9795 11.6025 15.093C11.603 15.2058 11.6422 15.3051 11.7207 15.3843C11.7996 15.4637 11.8992 15.5031 12.0123 15.5031Z" fill="white" stroke="white" stroke-width="0.2"/>
</g>
</g>
<defs>
<clipPath id="clip0_5668_4422">
<rect width="22" height="21" fill="white"/>
</clipPath>
</defs>
</svg>
