<svg width="24" height="24" viewBox="0 0 24 24" fill="none" xmlns="http://www.w3.org/2000/svg">
<path d="M11.5059 3.74683L20.5312 12.7722L21.0605 13.3025L20.5312 13.8328L19.5566 14.8083L19.0264 15.3386L18.4961 14.8093L9.67578 6.00854H5.53613V3.74683H11.5059Z" stroke="black" stroke-width="1.5"/>
<path d="M9.21875 6.03247L9.43848 6.25122L18.2441 15.0383L18.7754 15.5686L18.2441 16.0989L12.8057 21.5374L12.2754 21.0071L3.46973 12.2024L3.25 11.9827V6.03247H9.21875ZM6.66699 9.05591C6.45035 9.05591 6.27344 9.23282 6.27344 9.44946C6.27361 9.66639 6.45013 9.84204 6.66699 9.84204C6.8837 9.84187 7.0594 9.66629 7.05957 9.44946C7.05957 9.23293 6.88349 9.05608 6.66699 9.05591Z" stroke="black" stroke-width="1.5"/>
</svg>
