<svg width="24" height="24" viewBox="0 0 24 24" fill="none" xmlns="http://www.w3.org/2000/svg">
<path fill-rule="evenodd" clip-rule="evenodd" d="M11.9992 3.39535C11.4488 3.39535 10.921 3.61586 10.5319 4.00838C10.1427 4.4009 9.92412 4.93327 9.92412 5.48837V5.73023C10.4378 5.72093 11.0013 5.72093 11.6211 5.72093H12.3782C12.9961 5.72093 13.5606 5.72093 14.0752 5.73023V5.48837C14.0752 5.21343 14.0215 4.94119 13.9171 4.68719C13.8128 4.43319 13.6599 4.20242 13.467 4.00806C13.2743 3.81368 13.0455 3.65953 12.7936 3.5544C12.5417 3.44927 12.2718 3.39523 11.9992 3.39535ZM15.4576 5.79349V5.48837C15.4576 4.5632 15.0932 3.67592 14.4447 3.02172C13.7961 2.36752 12.9164 2 11.9992 2C11.0819 2 10.2023 2.36752 9.55369 3.02172C8.90511 3.67592 8.54074 4.5632 8.54074 5.48837V5.79349C8.40916 5.80465 8.28189 5.81798 8.15892 5.83349C7.22745 5.94977 6.46013 6.19349 5.80718 6.73953C5.15422 7.28558 4.7761 8.00186 4.49204 8.90419C4.21537 9.7786 4.00694 10.9014 3.74502 12.3144L3.72565 12.4167C3.3549 14.4102 3.06347 15.9814 3.00906 17.2195C2.95372 18.4893 3.14186 19.5405 3.852 20.4028C4.56213 21.266 5.55171 21.6456 6.7986 21.8251C8.01597 22 9.59948 22 11.6109 22H12.3902C14.4007 22 15.9852 22 17.2016 21.8251C18.4485 21.6456 19.439 21.266 20.1491 20.4028C20.8593 19.5395 21.0456 18.4893 20.9911 17.2195C20.9377 15.9814 20.6453 14.4102 20.2746 12.4167L20.2561 12.3144C19.9933 10.9014 19.7839 9.77767 19.5091 8.90419C19.2232 8.00186 18.8451 7.28558 18.1921 6.73953C17.5401 6.19349 16.7718 5.94884 15.8404 5.83349C15.7134 5.81773 15.5861 5.80439 15.4585 5.79349M8.32862 7.2186C7.54009 7.31628 7.06329 7.5014 6.69069 7.81395C6.31903 8.12465 6.05065 8.56279 5.80902 9.32744C5.56278 10.1088 5.36818 11.1488 5.0952 12.6177C4.71154 14.68 4.43947 16.1526 4.39059 17.2809C4.34264 18.3879 4.51971 19.0298 4.91536 19.5126C5.31193 19.9935 5.90493 20.2865 6.99319 20.4428C8.0999 20.6028 9.58657 20.6047 11.6672 20.6047H12.3312C14.4127 20.6047 15.8975 20.6028 17.0052 20.4437C18.0934 20.2865 18.6864 19.9935 19.083 19.5126C19.4796 19.0307 19.6557 18.3888 19.6087 17.28C19.5589 16.1535 19.2868 14.68 18.9032 12.6177C18.6302 11.1479 18.4365 10.1098 18.1893 9.32744C17.9477 8.56279 17.6803 8.12465 17.3077 7.81302C16.9351 7.5014 16.4592 7.31628 15.6697 7.21767C14.8619 7.11721 13.8132 7.11628 12.3312 7.11628H11.6672C10.1851 7.11628 9.13651 7.11721 8.32862 7.2186Z" fill="black"/>
<path d="M15.4576 5.79349V5.48837C15.4576 4.5632 15.0932 3.67592 14.4447 3.02172C13.7961 2.36752 12.9164 2 11.9992 2C11.0819 2 10.2023 2.36752 9.55369 3.02172C8.90511 3.67592 8.54074 4.5632 8.54074 5.48837V5.79349C8.40916 5.80465 8.28189 5.81798 8.15892 5.83349C7.22745 5.94977 6.46013 6.19349 5.80718 6.73953C5.15422 7.28558 4.7761 8.00186 4.49204 8.90419C4.21537 9.7786 4.00694 10.9014 3.74502 12.3144L3.72565 12.4167C3.3549 14.4102 3.06347 15.9814 3.00906 17.2195C2.95372 18.4893 3.14186 19.5405 3.852 20.4028C4.56213 21.266 5.55171 21.6456 6.7986 21.8251C8.01597 22 9.59948 22 11.6109 22H12.3902C14.4007 22 15.9852 22 17.2016 21.8251C18.4485 21.6456 19.439 21.266 20.1491 20.4028C20.8593 19.5395 21.0456 18.4893 20.9911 17.2195C20.9377 15.9814 20.6453 14.4102 20.2746 12.4167L20.2561 12.3144C19.9933 10.9014 19.7839 9.77767 19.5091 8.90419C19.2232 8.00186 18.8451 7.28558 18.1921 6.73953C17.5401 6.19349 16.7718 5.94884 15.8404 5.83349C15.7134 5.81773 15.5861 5.80439 15.4585 5.79349M11.9992 3.39535C11.4488 3.39535 10.921 3.61586 10.5319 4.00838C10.1427 4.4009 9.92412 4.93327 9.92412 5.48837V5.73023C10.4378 5.72093 11.0013 5.72093 11.6211 5.72093H12.3782C12.9961 5.72093 13.5606 5.72093 14.0752 5.73023V5.48837C14.0752 5.21343 14.0215 4.94119 13.9171 4.68719C13.8128 4.43319 13.6599 4.20242 13.467 4.00806C13.2743 3.81368 13.0455 3.65953 12.7936 3.5544C12.5417 3.44927 12.2718 3.39523 11.9992 3.39535ZM8.32862 7.2186C7.54009 7.31628 7.06329 7.5014 6.69069 7.81395C6.31903 8.12465 6.05065 8.56279 5.80902 9.32744C5.56278 10.1088 5.36818 11.1488 5.0952 12.6177C4.71154 14.68 4.43947 16.1526 4.39059 17.2809C4.34264 18.3879 4.51971 19.0298 4.91536 19.5126C5.31193 19.9935 5.90493 20.2865 6.99319 20.4428C8.0999 20.6028 9.58657 20.6047 11.6672 20.6047H12.3312C14.4127 20.6047 15.8975 20.6028 17.0052 20.4437C18.0934 20.2865 18.6864 19.9935 19.083 19.5126C19.4796 19.0307 19.6557 18.3888 19.6087 17.28C19.5589 16.1535 19.2868 14.68 18.9032 12.6177C18.6302 11.1479 18.4365 10.1098 18.1893 9.32744C17.9477 8.56279 17.6803 8.12465 17.3077 7.81302C16.9351 7.5014 16.4592 7.31628 15.6697 7.21767C14.8619 7.11721 13.8132 7.11628 12.3312 7.11628H11.6672C10.1851 7.11628 9.13651 7.11721 8.32862 7.2186Z" stroke="black" stroke-width="0.2"/>
</svg>
