<svg width="24" height="24" viewBox="0 0 24 24" fill="none" xmlns="http://www.w3.org/2000/svg">
<path d="M4.1231 2.00003C2.95507 2.00003 2 2.95765 2 4.12564V9.03599C2 10.204 2.95507 11.1603 4.1231 11.1603H10.7546C10.8617 11.1603 10.9638 11.1175 11.0394 11.0419C11.1163 10.9663 11.1579 10.8642 11.1591 10.7571V4.12561C11.1591 2.95759 10.204 2 9.03601 2L4.1231 2.00003ZM14.9641 2.00003C13.7961 2.00003 12.841 2.95765 12.841 4.12564V10.7572H12.8397C12.8397 10.9789 13.0199 11.1591 13.2417 11.1604H19.8732C21.0412 11.1604 21.9976 10.204 21.9976 9.03602V4.12568C21.9976 2.95765 21.0412 2.00006 19.8732 2.00006L14.9641 2.00003ZM4.1231 2.80643H9.03475C9.76806 2.80643 10.3514 3.39233 10.3514 4.12564V10.3527H4.12213C3.38882 10.3527 2.80544 9.76804 2.80544 9.03599V4.12564C2.80544 3.39233 3.38882 2.80643 4.12213 2.80643H4.1231ZM14.9641 2.80643H19.8731C20.6065 2.80643 21.1911 3.39233 21.1911 4.12564V9.03599C21.1911 9.7693 20.6065 10.3527 19.8731 10.3527H13.6438V4.12564C13.6438 3.39233 14.231 2.80643 14.963 2.80643H14.9641ZM4.1231 12.8397C2.95507 12.8397 2 13.7948 2 14.964V19.8744C2 21.0424 2.95507 21.9975 4.1231 21.9975H9.03475C10.2028 21.9975 11.1579 21.0424 11.1579 19.8744V13.2429H11.1591C11.1579 13.1358 11.1163 13.0337 11.0394 12.9581C10.9638 12.8825 10.8618 12.8397 10.7547 12.8409L4.1231 12.8397ZM16.6185 12.8397C14.5357 12.8397 12.8371 14.5357 12.8371 16.6185C12.8371 18.7013 14.5356 20.3973 16.6185 20.3973C17.5143 20.3973 18.3384 20.0823 18.9873 19.5594L21.3095 21.8816C21.3851 21.9572 21.4884 22 21.5955 22C21.7026 22 21.806 21.9572 21.8816 21.8816C21.9572 21.806 22 21.7026 22 21.5955C22 21.4884 21.9572 21.3864 21.8816 21.3108L19.5581 18.9899C20.0823 18.341 20.3985 17.5157 20.3985 16.6198C20.3985 14.537 18.7026 12.841 16.6197 12.841L16.6185 12.8397ZM4.1231 13.6448H10.3524V19.8741C10.3524 20.6074 9.76903 21.1933 9.03572 21.1933H4.12407C3.39076 21.1933 2.80737 20.6074 2.80737 19.8741V14.9638C2.80737 14.2305 3.39076 13.6458 4.12407 13.6446L4.1231 13.6448ZM16.6185 13.6448C18.2653 13.6448 19.5908 14.9716 19.5908 16.6185C19.5908 17.4362 19.2632 18.1733 18.7328 18.7101V18.7113C18.7277 18.7151 18.7227 18.7189 18.7189 18.7227C18.7151 18.7265 18.7113 18.7315 18.7076 18.7365C18.172 19.2657 17.435 19.5908 16.6185 19.5908C14.9716 19.5908 13.6436 18.2653 13.6436 16.6197C13.6436 14.9729 14.9716 13.6461 16.6185 13.6461L16.6185 13.6448Z" fill="black" stroke="black" stroke-width="0.6"/>
</svg>
