<svg width="24" height="24" viewBox="0 0 24 24" fill="none" xmlns="http://www.w3.org/2000/svg">
<path d="M19.9996 10C19.9996 9.73481 19.8942 9.48046 19.7067 9.29292C19.5192 9.10539 19.2648 9.00003 18.9996 9.00003C18.7344 9.00003 18.48 9.10539 18.2925 9.29292C18.1049 9.48046 17.9996 9.73481 17.9996 10H19.9996ZM5.99959 10C5.99959 9.73481 5.89424 9.48046 5.7067 9.29292C5.51916 9.10539 5.26481 9.00003 4.99959 9.00003C4.73438 9.00003 4.48002 9.10539 4.29249 9.29292C4.10495 9.48046 3.99959 9.73481 3.99959 10H5.99959ZM20.2926 12.707C20.4812 12.8892 20.7338 12.99 20.996 12.9877C21.2582 12.9854 21.509 12.8803 21.6944 12.6948C21.8798 12.5094 21.985 12.2586 21.9873 11.9964C21.9895 11.7342 21.8888 11.4816 21.7066 11.293L20.2926 12.707ZM11.9996 3.00003L12.7066 2.29303C12.5191 2.10556 12.2648 2.00024 11.9996 2.00024C11.7344 2.00024 11.4801 2.10556 11.2926 2.29303L11.9996 3.00003ZM2.29259 11.293C2.19708 11.3853 2.1209 11.4956 2.06849 11.6176C2.01608 11.7396 1.9885 11.8709 1.98734 12.0036C1.98619 12.1364 2.01149 12.2681 2.06177 12.391C2.11205 12.5139 2.18631 12.6255 2.2802 12.7194C2.37409 12.8133 2.48574 12.8876 2.60864 12.9379C2.73154 12.9881 2.86321 13.0134 2.99599 13.0123C3.12877 13.0111 3.25999 12.9835 3.382 12.9311C3.504 12.8787 3.61435 12.8025 3.70659 12.707L2.29259 11.293ZM6.99959 22H16.9996V20H6.99959V22ZM19.9996 19V10H17.9996V19H19.9996ZM5.99959 19V10H3.99959V19H5.99959ZM21.7066 11.293L12.7066 2.29303L11.2926 3.70703L20.2926 12.707L21.7066 11.293ZM11.2926 2.29303L2.29259 11.293L3.70659 12.707L12.7066 3.70703L11.2926 2.29303ZM16.9996 22C17.7952 22 18.5583 21.684 19.1209 21.1214C19.6835 20.5587 19.9996 19.7957 19.9996 19H17.9996C17.9996 19.2652 17.8942 19.5196 17.7067 19.7071C17.5192 19.8947 17.2648 20 16.9996 20V22ZM6.99959 20C6.73438 20 6.48002 19.8947 6.29249 19.7071C6.10495 19.5196 5.99959 19.2652 5.99959 19H3.99959C3.99959 19.7957 4.31566 20.5587 4.87827 21.1214C5.44088 21.684 6.20394 22 6.99959 22V20Z" fill="black"/>
</svg>
