<svg width="37" height="10" viewBox="0 0 37 10" fill="none" xmlns="http://www.w3.org/2000/svg">
<path d="M0.416016 6.1582L2.94141 6C2.99609 6.41016 3.10742 6.72266 3.27539 6.9375C3.54883 7.28516 3.93945 7.45898 4.44727 7.45898C4.82617 7.45898 5.11719 7.37109 5.32031 7.19531C5.52734 7.01562 5.63086 6.80859 5.63086 6.57422C5.63086 6.35156 5.5332 6.15234 5.33789 5.97656C5.14258 5.80078 4.68945 5.63477 3.97852 5.47852C2.81445 5.2168 1.98438 4.86914 1.48828 4.43555C0.988281 4.00195 0.738281 3.44922 0.738281 2.77734C0.738281 2.33594 0.865234 1.91992 1.11914 1.5293C1.37695 1.13477 1.76172 0.826172 2.27344 0.603516C2.78906 0.376953 3.49414 0.263672 4.38867 0.263672C5.48633 0.263672 6.32227 0.46875 6.89648 0.878906C7.47461 1.28516 7.81836 1.93359 7.92773 2.82422L5.42578 2.9707C5.35938 2.58398 5.21875 2.30273 5.00391 2.12695C4.79297 1.95117 4.5 1.86328 4.125 1.86328C3.81641 1.86328 3.58398 1.92969 3.42773 2.0625C3.27148 2.19141 3.19336 2.34961 3.19336 2.53711C3.19336 2.67383 3.25781 2.79688 3.38672 2.90625C3.51172 3.01953 3.80859 3.125 4.27734 3.22266C5.4375 3.47266 6.26758 3.72656 6.76758 3.98438C7.27148 4.23828 7.63672 4.55469 7.86328 4.93359C8.09375 5.3125 8.20898 5.73633 8.20898 6.20508C8.20898 6.75586 8.05664 7.26367 7.75195 7.72852C7.44727 8.19336 7.02148 8.54688 6.47461 8.78906C5.92773 9.02734 5.23828 9.14648 4.40625 9.14648C2.94531 9.14648 1.93359 8.86523 1.37109 8.30273C0.808594 7.74023 0.490234 7.02539 0.416016 6.1582ZM14.8359 7.58203H11.8125L11.3965 9H8.68359L11.9121 0.410156H14.8066L18.0352 9H15.2578L14.8359 7.58203ZM14.2793 5.72461L13.3301 2.63672L12.3867 5.72461H14.2793ZM18.9258 9V0.410156H23.3496C24.1699 0.410156 24.7969 0.480469 25.2305 0.621094C25.6641 0.761719 26.0137 1.02344 26.2793 1.40625C26.5449 1.78516 26.6777 2.24805 26.6777 2.79492C26.6777 3.27148 26.5762 3.68359 26.373 4.03125C26.1699 4.375 25.8906 4.6543 25.5352 4.86914C25.3086 5.00586 24.998 5.11914 24.6035 5.20898C24.9199 5.31445 25.1504 5.41992 25.2949 5.52539C25.3926 5.5957 25.5332 5.74609 25.7168 5.97656C25.9043 6.20703 26.0293 6.38477 26.0918 6.50977L27.375 9H24.375L22.957 6.375C22.7773 6.03516 22.6172 5.81445 22.4766 5.71289C22.2852 5.58008 22.0684 5.51367 21.8262 5.51367H21.5918V9H18.9258ZM21.5918 3.89062H22.7109C22.832 3.89062 23.0664 3.85156 23.4141 3.77344C23.5898 3.73828 23.7324 3.64844 23.8418 3.50391C23.9551 3.35938 24.0117 3.19336 24.0117 3.00586C24.0117 2.72852 23.9238 2.51562 23.748 2.36719C23.5723 2.21875 23.2422 2.14453 22.7578 2.14453H21.5918V3.89062ZM33.8203 0.410156H36.4688V5.53125C36.4688 6.03906 36.3887 6.51953 36.2285 6.97266C36.0723 7.42188 35.8242 7.81641 35.4844 8.15625C35.1484 8.49219 34.7949 8.72852 34.4238 8.86523C33.9082 9.05664 33.2891 9.15234 32.5664 9.15234C32.1484 9.15234 31.6914 9.12305 31.1953 9.06445C30.7031 9.00586 30.291 8.89062 29.959 8.71875C29.627 8.54297 29.3223 8.29492 29.0449 7.97461C28.7715 7.6543 28.584 7.32422 28.4824 6.98438C28.3184 6.4375 28.2363 5.95312 28.2363 5.53125V0.410156H30.8848V5.6543C30.8848 6.12305 31.0137 6.49023 31.2715 6.75586C31.5332 7.01758 31.8945 7.14844 32.3555 7.14844C32.8125 7.14844 33.1699 7.01953 33.4277 6.76172C33.6895 6.5 33.8203 6.13086 33.8203 5.6543V0.410156Z" fill="black"/>
</svg>
