<svg xmlns="http://www.w3.org/2000/svg" fill="none" viewBox="0 0 24 24" height="24" width="24">
<path fill="black" d="M19.8097 3.98624C19.6713 3.02649 18.927 2.22991 17.9571 2.00441C16.9754 1.77708 15.9817 1.60841 15.0027 1.50299C14.7726 1.47641 14.5581 1.62949 14.5068 1.85683C14.2923 2.79824 13.4563 3.43166 12.4287 3.43441C11.3984 3.43166 10.5624 2.79824 10.3479 1.85683C10.2965 1.62949 10.0802 1.47641 9.85196 1.50299C8.87387 1.60841 7.87929 1.77708 6.89754 2.00441C5.92771 2.22899 5.18338 3.02558 5.04588 3.98533C4.31804 9.02699 4.31804 14.1392 5.04588 19.1809C5.18429 20.1407 5.92862 20.9372 6.89846 21.1627C7.88021 21.3901 8.87388 21.5587 9.85288 21.6642C10.082 21.6907 10.2975 21.5377 10.3488 21.3103C10.5633 20.3689 11.3993 19.7355 12.4269 19.7327C13.4572 19.7355 14.2932 20.3689 14.5077 21.3103C14.5554 21.5202 14.7424 21.6669 14.9541 21.6669C14.9706 21.6669 14.9871 21.6669 15.0036 21.6642C15.9817 21.5587 16.9763 21.3901 17.958 21.1627C18.9279 20.9382 19.6722 20.1416 19.8097 19.1818C20.5375 14.1402 20.5375 9.02791 19.8097 3.98624ZM18.9022 19.0517C18.8179 19.6411 18.355 20.1306 17.7509 20.2708C16.9295 20.4615 16.1009 20.6091 15.2795 20.7108C14.8432 19.5815 13.7249 18.8207 12.4269 18.8179C11.1307 18.8207 10.0133 19.5815 9.57696 20.7108C8.75563 20.6091 7.92696 20.4615 7.10562 20.2708C6.50154 20.1306 6.03863 19.6411 5.95429 19.0517C5.75354 17.662 5.60963 16.2668 5.52163 14.8689H7.68588C7.93888 14.8689 8.14421 14.6636 8.14421 14.4106C8.14421 14.1576 7.93888 13.9522 7.68588 13.9522H5.47213C5.32271 10.6706 5.48404 7.37883 5.95429 4.11733C6.03863 3.52791 6.50154 3.03841 7.10562 2.89816C7.92696 2.70749 8.75563 2.55991 9.57696 2.45816C10.0133 3.58749 11.1316 4.34833 12.4296 4.35108C13.7258 4.34833 14.8432 3.58749 15.2795 2.45816C16.1009 2.55991 16.9295 2.70749 17.7509 2.89816C18.355 3.03841 18.8179 3.52791 18.9022 4.11733C19.3734 7.37883 19.5338 10.6706 19.3844 13.9522H17.1706C16.9176 13.9522 16.7123 14.1576 16.7123 14.4106C16.7123 14.6636 16.9176 14.8689 17.1706 14.8689H19.3349C19.2469 16.2668 19.103 17.662 18.9022 19.0517Z"></path>
<path fill="black" d="M13.2985 13.9522H11.9583C11.7053 13.9522 11.5 14.1575 11.5 14.4105C11.5 14.6635 11.7053 14.8689 11.9583 14.8689H13.2985C13.5515 14.8689 13.7568 14.6635 13.7568 14.4105C13.7568 14.1575 13.5515 13.9522 13.2985 13.9522Z"></path>
</svg>
